
      <svg data-logo="logo" xmlns="http://www.w3.org/2000/svg" viewBox="0 0 236 61">
        <g id="logogram" transform="translate(0, 10.5) rotate(0)"><path d="M21.3474 0.349945L46.7544 25.7266V39.3499H34.8978V30.624L16.4444 12.1924H12.611V39.3499H0.754395V0.349945H21.3474ZM34.8978 13.8842V0.349945H46.7544V13.8842H34.8978Z" fill="#757575"/></g>
        <g id="logotype" transform="translate(48, 1)"><path fill="#757575" d="M16.72 48.53L16.72 48.53Q12.39 48.53 9.19 46.83Q5.99 45.13 4.22 42.04Q2.46 38.95 2.46 34.71L2.46 34.71Q2.46 30.51 4.20 27.42Q5.95 24.33 9.17 22.65Q12.39 20.97 16.77 20.97L16.77 20.97Q21.10 20.97 24.28 22.65Q27.46 24.33 29.18 27.42Q30.90 30.51 30.90 34.75L30.90 34.75Q30.90 38.95 29.18 42.06Q27.46 45.17 24.25 46.85Q21.05 48.53 16.72 48.53ZM16.72 42.17L16.72 42.17Q20.04 42.17 21.80 40.16Q23.57 38.15 23.57 34.71L23.57 34.71Q23.57 31.26 21.80 29.30Q20.04 27.33 16.72 27.33L16.72 27.33Q13.37 27.33 11.58 29.30Q9.79 31.26 9.79 34.71L9.79 34.71Q9.79 38.15 11.58 40.16Q13.37 42.17 16.72 42.17ZM44.90 48.53L44.90 48.53Q40.84 48.53 37.99 46.81Q35.14 45.09 33.68 41.97Q32.23 38.86 32.23 34.75L32.23 34.75Q32.23 30.60 33.64 27.48Q35.05 24.37 37.77 22.67Q40.48 20.97 44.28 20.97L44.28 20.97Q47.20 20.97 49.30 22.05Q51.39 23.13 52.54 25.12L52.54 25.12L52.72 25.12L52.72 10.90L60.05 10.90L60.05 40.76L63.67 40.76L63.67 48L56.25 48L56.25 43.67L54.40 43.67Q52.98 45.97 50.62 47.25Q48.26 48.53 44.90 48.53ZM46.27 42.17L46.27 42.17Q49.23 42.17 50.97 40.51Q52.72 38.86 52.72 35.94L52.72 35.94L52.72 33.56Q52.72 30.64 50.97 28.99Q49.23 27.33 46.27 27.33L46.27 27.33Q42.91 27.33 41.24 29.32Q39.56 31.30 39.56 34.75L39.56 34.75Q39.56 38.20 41.24 40.18Q42.91 42.17 46.27 42.17ZM78.82 48.53L78.82 48.53Q74.54 48.53 71.36 46.83Q68.18 45.13 66.45 42.02Q64.73 38.90 64.73 34.66L64.73 34.66Q64.73 30.42 66.41 27.35Q68.09 24.28 71.20 22.63Q74.32 20.97 78.56 20.97L78.56 20.97Q82.71 20.97 85.69 22.56Q88.67 24.15 90.26 27.11Q91.85 30.07 91.85 34.18L91.85 34.18L91.85 36.65L71.75 36.65Q72.20 39.61 74.01 41.15Q75.82 42.70 78.78 42.70L78.78 42.70Q81.12 42.70 82.49 41.91Q83.86 41.11 84.43 39.48L84.43 39.48L91.76 39.48Q90.88 43.72 87.48 46.12Q84.08 48.53 78.82 48.53ZM71.93 31.79L71.93 31.79L84.83 31.79Q84.47 29.27 82.88 28.01Q81.29 26.76 78.60 26.76L78.60 26.76Q75.91 26.76 74.21 28.04Q72.51 29.32 71.93 31.79ZM103.86 58.60L96.53 58.60L96.53 28.74L92.91 28.74L92.91 21.50L100.33 21.50L100.33 25.83L102.19 25.83Q103.60 23.53 105.96 22.25Q108.32 20.97 111.68 20.97L111.68 20.97Q115.79 20.97 118.62 22.69Q121.44 24.41 122.90 27.51Q124.36 30.60 124.36 34.75L124.36 34.75Q124.36 38.90 122.94 42.02Q121.53 45.13 118.84 46.83Q116.14 48.53 112.30 48.53L112.30 48.53Q109.38 48.53 107.31 47.45Q105.23 46.37 104.04 44.38L104.04 44.38L103.86 44.38L103.86 58.60ZM110.31 42.17L110.31 42.17Q113.67 42.17 115.35 40.18Q117.03 38.20 117.03 34.75L117.03 34.75Q117.03 31.30 115.35 29.32Q113.67 27.33 110.31 27.33L110.31 27.33Q107.35 27.33 105.61 28.99Q103.86 30.64 103.86 33.56L103.86 33.56L103.86 35.94Q103.86 38.86 105.61 40.51Q107.35 42.17 110.31 42.17ZM139.95 48.53L139.95 48.53Q135.62 48.53 132.42 46.83Q129.22 45.13 127.45 42.04Q125.68 38.95 125.68 34.71L125.68 34.71Q125.68 30.51 127.43 27.42Q129.17 24.33 132.40 22.65Q135.62 20.97 139.99 20.97L139.99 20.97Q144.32 20.97 147.50 22.65Q150.68 24.33 152.40 27.42Q154.13 30.51 154.13 34.75L154.13 34.75Q154.13 38.95 152.40 42.06Q150.68 45.17 147.48 46.85Q144.28 48.53 139.95 48.53ZM139.95 42.17L139.95 42.17Q143.26 42.17 145.03 40.16Q146.79 38.15 146.79 34.71L146.79 34.71Q146.79 31.26 145.03 29.30Q143.26 27.33 139.95 27.33L139.95 27.33Q136.59 27.33 134.80 29.30Q133.01 31.26 133.01 34.71L133.01 34.71Q133.01 38.15 134.80 40.16Q136.59 42.17 139.95 42.17ZM166.14 58.60L158.81 58.60L158.81 28.74L155.19 28.74L155.19 21.50L162.61 21.50L162.61 25.83L164.46 25.83Q165.87 23.53 168.24 22.25Q170.60 20.97 173.96 20.97L173.96 20.97Q178.06 20.97 180.89 22.69Q183.72 24.41 185.17 27.51Q186.63 30.60 186.63 34.75L186.63 34.75Q186.63 38.90 185.22 42.02Q183.81 45.13 181.11 46.83Q178.42 48.53 174.57 48.53L174.57 48.53Q171.66 48.53 169.58 47.45Q167.51 46.37 166.32 44.38L166.32 44.38L166.14 44.38L166.14 58.60ZM172.59 42.17L172.59 42.17Q175.94 42.17 177.62 40.18Q179.30 38.20 179.30 34.75L179.30 34.75Q179.30 31.30 177.62 29.32Q175.94 27.33 172.59 27.33L172.59 27.33Q169.63 27.33 167.88 28.99Q166.14 30.64 166.14 33.56L166.14 33.56L166.14 35.94Q166.14 38.86 167.88 40.51Q169.63 42.17 172.59 42.17Z"/></g>
      </svg>
    