
      <svg data-logo="logo" xmlns="http://www.w3.org/2000/svg" viewBox="0 0 179 48.2">
        <g id="logogram" transform="translate(0, 4.100000000000001) rotate(0)"><path d="M21.3474 0.349945L46.7544 25.7266V39.3499H34.8978V30.624L16.4444 12.1924H12.611V39.3499H0.754395V0.349945H21.3474ZM34.8978 13.8842V0.349945H46.7544V13.8842H34.8978Z" fill="#757575"/></g>
        <g id="logotype" transform="translate(48, 1.9000000000000013)"><path fill="#757575" d="M11.38 32.35L11.38 32.35Q8.50 32.35 6.34 31.23Q4.18 30.10 3.00 28.05Q1.82 25.99 1.82 23.22L1.82 23.22Q1.82 20.45 3.00 18.41Q4.18 16.37 6.34 15.26Q8.50 14.15 11.41 14.15L11.41 14.15Q14.33 14.15 16.44 15.26Q18.56 16.37 19.73 18.41Q20.89 20.45 20.89 23.25L20.89 23.25Q20.89 26.02 19.73 28.08Q18.56 30.13 16.43 31.24Q14.30 32.35 11.38 32.35ZM11.38 27.68L11.38 27.68Q13.40 27.68 14.46 26.47Q15.53 25.26 15.53 23.22L15.53 23.22Q15.53 21.18 14.46 20.00Q13.40 18.82 11.38 18.82L11.38 18.82Q9.34 18.82 8.26 20.00Q7.18 21.18 7.18 23.22L7.18 23.22Q7.18 25.26 8.26 26.47Q9.34 27.68 11.38 27.68ZM30.95 32.35L30.95 32.35Q28.21 32.35 26.33 31.20Q24.45 30.05 23.49 27.99Q22.52 25.93 22.52 23.25L22.52 23.25Q22.52 20.54 23.46 18.48Q24.39 16.42 26.19 15.29Q27.98 14.15 30.49 14.15L30.49 14.15Q32.35 14.15 33.70 14.84Q35.04 15.52 35.77 16.75L35.77 16.75L35.88 16.75L35.88 7.50L41.25 7.50L41.25 26.75L43.88 26.75L43.88 32L38.51 32L38.51 29.08L37.28 29.08Q36.35 30.63 34.76 31.49Q33.17 32.35 30.95 32.35ZM31.98 27.68L31.98 27.68Q33.78 27.68 34.83 26.68Q35.88 25.67 35.88 23.89L35.88 23.89L35.88 22.61Q35.88 20.83 34.83 19.82Q33.78 18.82 31.98 18.82L31.98 18.82Q29.90 18.82 28.90 20.01Q27.89 21.21 27.89 23.25L27.89 23.25Q27.89 25.29 28.90 26.49Q29.90 27.68 31.98 27.68ZM54.72 32.35L54.72 32.35Q51.84 32.35 49.71 31.23Q47.58 30.10 46.43 28.05Q45.27 25.99 45.27 23.19L45.27 23.19Q45.27 20.39 46.40 18.36Q47.52 16.34 49.61 15.24Q51.69 14.15 54.52 14.15L54.52 14.15Q57.32 14.15 59.33 15.21Q61.35 16.28 62.41 18.26Q63.47 20.25 63.47 23.02L63.47 23.02L63.47 24.74L50.44 24.74Q50.76 26.43 51.84 27.29Q52.92 28.15 54.70 28.15L54.70 28.15Q56.12 28.15 56.93 27.70Q57.73 27.25 58.08 26.25L58.08 26.25L63.45 26.25Q62.89 29.11 60.59 30.73Q58.28 32.35 54.72 32.35ZM50.52 21.24L50.52 21.24L58.34 21.24Q58.08 19.78 57.13 19.06Q56.18 18.35 54.55 18.35L54.55 18.35Q52.95 18.35 51.92 19.08Q50.90 19.81 50.52 21.24ZM72.87 39L67.50 39L67.50 19.75L64.87 19.75L64.87 14.50L70.24 14.50L70.24 17.42L71.47 17.42Q72.40 15.87 73.99 15.01Q75.58 14.15 77.80 14.15L77.80 14.15Q80.57 14.15 82.43 15.30Q84.30 16.45 85.26 18.50Q86.22 20.54 86.22 23.25L86.22 23.25Q86.22 25.96 85.29 28.02Q84.36 30.07 82.58 31.21Q80.80 32.35 78.26 32.35L78.26 32.35Q76.40 32.35 75.07 31.66Q73.74 30.98 72.98 29.75L72.98 29.75L72.87 29.75L72.87 39ZM76.77 27.68L76.77 27.68Q78.85 27.68 79.85 26.49Q80.86 25.29 80.86 23.25L80.86 23.25Q80.86 21.21 79.85 20.01Q78.85 18.82 76.77 18.82L76.77 18.82Q74.97 18.82 73.92 19.82Q72.87 20.83 72.87 22.61L72.87 22.61L72.87 23.89Q72.87 25.67 73.92 26.68Q74.97 27.68 76.77 27.68ZM97.42 32.35L97.42 32.35Q94.54 32.35 92.38 31.23Q90.22 30.10 89.04 28.05Q87.86 25.99 87.86 23.22L87.86 23.22Q87.86 20.45 89.04 18.41Q90.22 16.37 92.38 15.26Q94.54 14.15 97.45 14.15L97.45 14.15Q100.37 14.15 102.49 15.26Q104.60 16.37 105.77 18.41Q106.93 20.45 106.93 23.25L106.93 23.25Q106.93 26.02 105.77 28.08Q104.60 30.13 102.47 31.24Q100.34 32.35 97.42 32.35ZM97.42 27.68L97.42 27.68Q99.44 27.68 100.50 26.47Q101.57 25.26 101.57 23.22L101.57 23.22Q101.57 21.18 100.50 20.00Q99.44 18.82 97.42 18.82L97.42 18.82Q95.38 18.82 94.30 20.00Q93.22 21.18 93.22 23.22L93.22 23.22Q93.22 25.26 94.30 26.47Q95.38 27.68 97.42 27.68ZM116.32 39L110.96 39L110.96 19.75L108.33 19.75L108.33 14.50L113.70 14.50L113.70 17.42L114.92 17.42Q115.86 15.87 117.45 15.01Q119.04 14.15 121.25 14.15L121.25 14.15Q124.02 14.15 125.89 15.30Q127.76 16.45 128.72 18.50Q129.68 20.54 129.68 23.25L129.68 23.25Q129.68 25.96 128.75 28.02Q127.82 30.07 126.04 31.21Q124.26 32.35 121.72 32.35L121.72 32.35Q119.85 32.35 118.53 31.66Q117.20 30.98 116.44 29.75L116.44 29.75L116.32 29.75L116.32 39ZM120.23 27.68L120.23 27.68Q122.30 27.68 123.31 26.49Q124.32 25.29 124.32 23.25L124.32 23.25Q124.32 21.21 123.31 20.01Q122.30 18.82 120.23 18.82L120.23 18.82Q118.42 18.82 117.37 19.82Q116.32 20.83 116.32 22.61L116.32 22.61L116.32 23.89Q116.32 25.67 117.37 26.68Q118.42 27.68 120.23 27.68Z"/></g>
      </svg>
    